<svg width="800" height="800" viewBox="0 0 800 800" fill="none" xmlns="http://www.w3.org/2000/svg">
<rect width="800" height="800" fill="#FCE79E"/>
<mask id="mask0_56_355" style="mask-type:luminance" maskUnits="userSpaceOnUse" x="46" y="267" width="707" height="266">
<path d="M753 267H46V532.927H753V267Z" fill="white"/>
</mask>
<g mask="url(#mask0_56_355)">
<path d="M123.545 500.789C120.382 500.789 116.414 500.713 111.639 500.566C106.649 500.412 102.394 500.176 98.8725 499.857L98.5502 499.829L98.2314 499.789C92.0954 499.051 86.8048 496.834 82.3595 493.13C77.4271 489.018 74.2248 483.731 72.7562 477.262C70.1879 466.709 67.5372 453.915 64.8006 438.874C62.0747 423.883 59.6031 407.775 57.3894 390.542C55.1614 373.244 53.4743 355.976 52.3281 338.743C52.0666 335.361 52.3926 332.026 53.3131 328.738C54.3698 324.945 56.1501 321.531 58.6467 318.497C61.1505 315.456 64.1522 313.06 67.6554 311.308C70.89 309.693 74.3645 308.726 78.0683 308.417L79.9309 330.751L76.7609 308.564C79.4151 308.188 82.5637 307.909 86.203 307.737C89.4949 307.579 92.7867 307.5 96.0786 307.5H103.207C106.115 307.5 109.934 307.536 114.658 307.608C120.175 307.694 124.914 308.006 128.882 308.546L125.852 330.751L127.883 308.432C134.807 309.062 140.742 311.849 145.686 316.792C148.884 319.991 151.152 323.781 152.484 328.158C153.523 331.579 153.921 335.175 153.666 338.954L131.308 337.464H153.716V351.828C153.716 356.914 153.817 361.965 154.014 366.983C154.214 372.095 154.451 376.644 154.716 380.638C155.174 387.637 155.79 392.523 156.564 395.299C156.6 395.431 156.632 395.535 156.657 395.607C156.643 395.571 156.621 395.51 156.582 395.421C156.292 394.729 155.869 393.988 155.31 393.2C154.003 391.344 152.33 389.765 150.289 388.45C147.015 386.351 143.415 385.298 139.485 385.298C136.107 385.298 132.952 386.129 130.018 387.791C127.862 389.009 126.074 390.549 124.652 392.408C123.961 393.311 123.431 394.188 123.062 395.041C122.997 395.191 122.947 395.317 122.915 395.413C122.922 395.388 122.94 395.331 122.961 395.245C124.079 391.033 125.308 385.982 126.647 380.097C127.568 376.017 128.531 371.367 129.534 366.152C130.648 360.356 131.737 355.259 132.798 350.868L154.583 356.126L132.64 351.57C134.886 340.741 138.346 332.342 143.013 326.378C146.467 321.965 150.661 318.601 155.597 316.284C160.325 314.063 165.44 312.956 170.939 312.956C176.448 312.956 181.559 314.041 186.28 316.212C191.317 318.529 195.583 321.918 199.072 326.378C203.743 332.342 207.199 340.741 209.449 351.57C210.291 355.51 211.25 360.195 212.322 365.626C213.31 370.63 214.256 375.007 215.162 378.757C216.688 385.416 218.053 391.051 219.256 395.657C219.296 395.818 219.335 395.947 219.364 396.04C219.357 396.019 219.335 395.965 219.299 395.879C219.006 395.17 218.561 394.403 217.97 393.59C216.634 391.742 214.918 390.187 212.83 388.923C209.76 387.067 206.422 386.136 202.811 386.136C199.043 386.136 195.569 387.118 192.388 389.08C190.314 390.363 188.602 391.932 187.255 393.78C186.657 394.604 186.198 395.388 185.879 396.133L185.851 396.144C186.599 393.476 187.172 388.722 187.566 381.881L187.595 381.411L187.642 380.946C188.007 377.303 188.25 373.03 188.376 368.133C188.512 362.778 188.616 357.387 188.684 351.96C188.752 346.777 188.72 342.181 188.591 338.184L210.989 337.464L188.627 338.954C188.376 335.175 188.77 331.579 189.812 328.158C191.145 323.781 193.409 319.991 196.611 316.792C201.554 311.849 207.489 309.062 214.413 308.432L216.441 330.751L213.543 308.529C217.612 307.998 222.451 307.69 228.064 307.608C232.929 307.536 236.74 307.5 239.509 307.5C242.414 307.5 246.297 307.536 251.161 307.608C256.817 307.694 261.631 308.006 265.604 308.546L262.573 330.751L265.048 308.478C268.444 308.854 271.607 309.728 274.53 311.1C278.348 312.888 281.558 315.395 284.162 318.623C288.725 324.286 290.728 331.027 290.169 338.85C289.313 351.72 288.131 364.698 286.619 377.776C285.122 390.764 283.442 403.369 281.587 415.587C279.724 427.823 277.79 439.189 275.777 449.677C273.735 460.319 271.682 469.7 269.616 477.824C267.893 484.143 264.701 489.244 260.041 493.13C255.628 496.809 250.409 499.023 244.384 499.775L243.89 499.839L243.392 499.879C239.548 500.187 235.318 500.416 230.701 500.566C226.191 500.713 222.348 500.789 219.167 500.789C216.129 500.789 212.325 500.713 207.751 500.566C202.876 500.409 198.839 500.162 195.644 499.825C188.824 499.069 182.938 496.752 177.992 492.88C172.422 488.524 168.65 482.585 166.669 475.063L166.476 474.332L166.336 473.59C165.648 470.026 164.685 465.169 163.442 459.019C162.234 453.048 160.959 447.252 159.62 441.628C158.43 436.391 157.195 432.118 155.909 428.801C155.859 428.669 155.816 428.565 155.78 428.49C155.794 428.515 155.819 428.568 155.862 428.644C156.192 429.242 156.65 429.879 157.238 430.553C158.531 432.039 160.11 433.289 161.973 434.303C164.813 435.851 167.873 436.621 171.146 436.621C174.245 436.621 177.15 435.915 179.865 434.5C181.717 433.537 183.293 432.337 184.593 430.897C185.206 430.223 185.682 429.578 186.03 428.966C186.076 428.884 186.108 428.826 186.126 428.79C186.094 428.858 186.051 428.955 186.001 429.081C184.686 432.394 183.39 436.9 182.111 442.606L160.243 437.695L182.301 441.657C181.287 447.32 180.127 453.259 178.823 459.481C177.59 465.373 176.638 470.077 175.961 473.59C174.191 482.005 170.219 488.527 164.043 493.159C159.104 496.866 153.351 499.084 146.782 499.811L144.307 477.538L147.803 499.675C144.113 500.258 139.646 500.592 134.406 500.681C130.086 500.753 126.468 500.789 123.545 500.789ZM123.545 455.967C126.217 455.967 129.588 455.931 133.657 455.863C136.806 455.813 139.188 455.655 140.811 455.401L141.319 455.322L141.831 455.265C140.295 455.433 138.737 456.114 137.15 457.303C135.516 458.528 134.213 459.993 133.235 461.702C132.629 462.759 132.199 463.901 131.945 465.126C132.669 461.372 133.668 456.429 134.954 450.3C136.168 444.497 137.243 438.978 138.185 433.737L138.271 433.261L138.378 432.788C140.173 424.789 142.161 418.044 144.339 412.55C146.209 407.836 148.548 403.928 151.356 400.826C153.656 398.286 156.26 396.259 159.165 394.744C162.937 392.781 166.93 391.799 171.146 391.799C175.474 391.799 179.553 392.842 183.39 394.93C186.248 396.484 188.799 398.548 191.037 401.116C193.699 404.175 195.923 408.011 197.711 412.621C199.781 417.973 201.619 424.18 203.223 431.248C204.681 437.366 206.064 443.663 207.375 450.132C208.646 456.426 209.639 461.422 210.351 465.126L188.344 469.36L210.015 463.658C209.839 462.984 209.513 462.246 209.04 461.44C208.181 459.982 207.038 458.697 205.616 457.583C203.882 456.225 202.12 455.448 200.336 455.251C202.45 455.473 205.405 455.645 209.194 455.766C213.289 455.899 216.613 455.967 219.167 455.967C221.857 455.967 225.213 455.899 229.232 455.766C233.144 455.641 236.672 455.451 239.817 455.197L241.604 477.538L238.825 455.301C236.156 455.634 233.663 456.766 231.345 458.697C228.784 460.831 227.061 463.521 226.177 466.767C228.025 459.51 229.884 450.999 231.757 441.234C233.659 431.312 235.497 420.516 237.274 408.849C239.05 397.161 240.655 385.094 242.095 372.639C243.521 360.274 244.642 347.948 245.462 335.655C245.365 336.991 245.502 338.406 245.86 339.903C246.465 342.403 247.601 344.689 249.27 346.759C251 348.905 253.085 350.549 255.52 351.688C257.064 352.412 258.59 352.859 260.098 353.028L259.822 352.995L259.547 352.956C257.365 352.659 254.353 352.483 250.502 352.426C245.86 352.358 242.195 352.326 239.509 352.326C236.962 352.326 233.366 352.358 228.723 352.426C224.83 352.483 221.703 352.666 219.339 352.974L218.905 353.031L218.472 353.071C222.319 352.72 225.596 351.194 228.304 348.486C230.386 346.405 231.851 343.98 232.692 341.211C233.244 339.398 233.462 337.65 233.351 335.97L233.376 336.353L233.387 336.74C233.541 341.408 233.577 346.673 233.505 352.53C233.434 358.15 233.326 363.731 233.183 369.283C233.029 375.286 232.714 380.663 232.241 385.405L209.939 383.174L232.316 384.47C231.732 394.547 230.626 402.477 228.999 408.269C227.681 412.962 225.851 416.92 223.505 420.144C221.391 423.052 218.866 425.413 215.936 427.222C211.899 429.715 207.525 430.961 202.811 430.961C198.083 430.961 193.684 429.729 189.622 427.268C186.535 425.402 183.888 422.941 181.678 419.889C179.152 416.407 177.222 412.102 175.885 406.973C174.571 401.933 173.138 396.033 171.591 389.274C170.538 384.915 169.456 379.925 168.349 374.305C167.321 369.111 166.393 364.569 165.559 360.679C165.036 358.146 164.477 356.112 163.893 354.575C163.717 354.12 163.567 353.773 163.438 353.529C163.485 353.619 163.596 353.776 163.775 354.002C164.749 355.245 166.006 356.223 167.55 356.932C168.772 357.494 169.904 357.777 170.939 357.777C172.103 357.777 173.339 357.469 174.642 356.857C176.151 356.148 177.376 355.198 178.31 354.002C178.49 353.776 178.601 353.619 178.647 353.529C178.518 353.773 178.368 354.12 178.192 354.575C177.608 356.112 177.05 358.146 176.527 360.679L176.451 361.033L176.369 361.384C175.47 365.099 174.531 369.508 173.55 374.616C172.454 380.305 171.39 385.441 170.355 390.03C168.897 396.445 167.539 402.019 166.282 406.754C164.921 411.869 162.908 416.171 160.239 419.656C157.961 422.633 155.25 425.011 152.108 426.792C148.189 429.013 143.981 430.119 139.485 430.119C134.646 430.119 130.176 428.805 126.071 426.168C123.198 424.324 120.733 421.942 118.677 419.022C116.439 415.849 114.673 411.948 113.387 407.331C111.782 401.578 110.654 393.673 109.991 383.618C109.701 379.223 109.443 374.265 109.228 368.753C109.006 363.147 108.895 357.502 108.895 351.828V336.715L108.945 335.97C108.834 337.65 109.053 339.398 109.604 341.211C110.446 343.98 111.907 346.405 113.992 348.486C116.697 351.194 119.974 352.72 123.825 353.071L123.323 353.024L122.825 352.956C120.644 352.659 117.692 352.483 113.981 352.426C109.482 352.358 105.89 352.326 103.207 352.326H96.0786C93.496 352.326 90.9169 352.386 88.3343 352.508C86.1063 352.616 84.3583 352.759 83.101 352.938L82.4491 353.031L81.7936 353.085C83.821 352.917 85.7911 352.354 87.7003 351.401C89.871 350.312 91.7193 348.844 93.2452 346.992C94.764 345.147 95.8457 343.077 96.4833 340.788C96.9812 339.001 97.1711 337.328 97.0493 335.762C98.1382 352.078 99.7358 368.434 101.846 384.825C103.963 401.284 106.312 416.63 108.899 430.857C111.478 445.031 113.999 457.189 116.464 467.329C115.694 463.937 113.888 461.061 111.055 458.697C108.705 456.741 106.212 455.602 103.569 455.286L100.9 477.538L102.927 455.218C105.56 455.458 108.92 455.641 113.018 455.766C117.331 455.899 120.841 455.967 123.545 455.967Z" fill="#003CA7"/>
<path d="M297.788 501.627C281.536 501.627 268.426 497.253 258.468 488.506C252.687 483.434 248.432 477.062 245.695 469.389C243.395 462.938 242.245 455.659 242.245 447.553C242.245 441.156 243.324 435.138 245.484 429.5C247.712 423.679 251.011 418.453 255.381 413.822C262.459 406.324 271.578 400.5 282.747 396.349C292.311 392.792 302.659 390.352 313.792 389.023C318.843 388.375 322.407 387.716 324.488 387.035C322.296 387.752 320.279 389.163 318.431 391.273C315.59 394.522 314.172 398.251 314.172 402.467C314.172 406.013 315.128 409.222 317.041 412.095C318.076 413.646 319.215 414.842 320.458 415.684C321.375 416.304 322.282 416.777 323.17 417.103C323.492 417.221 323.725 417.296 323.868 417.321C323.166 417.189 322.02 417.121 320.433 417.121C318.452 417.121 315.924 417.464 312.854 418.152C309.286 418.951 305.625 420.086 301.864 421.555C298.655 422.812 295.735 424.345 293.106 426.158L280.383 407.711L296.23 423.557C292.422 427.365 288.084 429.89 283.22 431.13C280.007 431.95 276.765 432.147 273.491 431.728C270.418 431.33 267.488 430.406 264.697 428.956C259.353 426.176 255.388 422.046 252.802 416.562C250.935 412.611 250.004 408.262 250.004 403.516H272.417L250.015 404.215C249.854 399.11 249.932 393.623 250.244 387.748C250.531 382.422 250.814 377.554 251.1 373.134C251.53 367.703 252.966 362.936 255.399 358.838C258.608 353.433 263.114 349.532 268.913 347.146L269.522 346.896L270.142 346.681C275.386 344.872 282.65 343.203 291.931 341.669C301.18 340.14 312.288 339.377 325.258 339.377C342.559 339.377 356.805 341.752 367.995 346.509C380.69 351.903 390.243 359.694 396.651 369.878C402.414 379.037 405.896 389.328 407.1 400.751C407.809 406.708 408.489 413.782 409.145 421.971C409.786 430.019 410.356 438.244 410.854 446.643C411.359 455.186 411.685 463.174 411.831 470.6C411.835 478.143 409.636 484.541 405.233 489.792C400.91 494.943 395.236 498.195 388.205 499.546L387.266 499.725L386.317 499.825C383.147 500.158 379.346 500.406 374.915 500.563C370.735 500.714 367.042 500.789 363.84 500.789C360.774 500.789 357.181 500.714 353.065 500.563C348.785 500.409 344.959 500.169 341.585 499.847C333.328 498.98 326.569 495.792 321.314 490.286C317.994 486.808 315.701 482.793 314.437 478.24C313.248 473.956 313.076 469.547 313.925 465.019L335.95 469.149L313.76 466.026L314.81 458.582C315.146 456.157 315.368 454.112 315.472 452.446C315.315 454.803 315.777 457.293 316.855 459.911C318.005 462.705 319.713 465.137 321.981 467.208C324.567 469.572 327.554 471.173 330.936 472.018C334.399 472.885 337.867 472.856 341.334 471.932C344.361 471.126 347.044 469.719 349.383 467.713C351.536 465.868 353.083 463.841 354.036 461.623L333.436 452.794L354.434 460.628C349.211 474.622 341.349 485.024 330.846 491.834C320.774 498.364 309.755 501.627 297.788 501.627ZM297.788 456.806C300.919 456.806 303.809 455.946 306.46 454.226C308.677 452.787 310.669 449.699 312.438 444.96L312.625 444.458L312.836 443.968C314.627 439.791 317.084 436.363 320.215 433.68C323.045 431.255 326.233 429.572 329.786 428.622C333.776 427.559 337.784 427.53 341.807 428.536C345.751 429.521 349.215 431.377 352.202 434.106C354.874 436.546 356.905 439.458 358.302 442.846C359.867 446.654 360.505 450.784 360.208 455.24C360.032 458.045 359.692 461.244 359.194 464.833L358.073 472.781L357.98 473.279C358.41 470.99 358.291 468.644 357.625 466.244C356.884 463.579 355.587 461.279 353.735 459.338C352.413 457.952 350.905 456.884 349.211 456.139C348.104 455.652 346.979 455.348 345.837 455.229C348.337 455.466 351.289 455.649 354.695 455.77C358.27 455.899 361.318 455.967 363.84 455.967C366.512 455.967 369.668 455.899 373.318 455.77C376.714 455.649 379.482 455.477 381.625 455.251L383.971 477.538L379.74 455.53C378.476 455.774 377.208 456.229 375.929 456.902C374.006 457.912 372.326 459.274 370.889 460.986C369.428 462.734 368.36 464.664 367.698 466.789C367.243 468.246 367.014 469.808 367.017 471.477C366.885 464.643 366.58 457.25 366.107 449.298C365.627 441.202 365.079 433.279 364.463 425.531C363.858 417.923 363.209 411.228 362.522 405.443C362.049 400.926 360.777 397.029 358.714 393.748C357.292 391.488 354.541 389.493 350.461 387.759C344.877 385.384 336.473 384.198 325.258 384.198C314.741 384.198 306.069 384.761 299.239 385.889C292.444 387.014 287.615 388.067 284.753 389.056L277.449 367.868L285.982 388.59C289.402 387.182 292.057 384.89 293.941 381.72C295.044 379.861 295.675 377.959 295.829 376.021C295.553 380.273 295.28 384.976 295.005 390.137C294.758 394.747 294.697 398.974 294.815 402.818L294.826 403.165V403.516C294.826 401.568 294.331 399.544 293.339 397.441C291.627 393.809 288.973 391.058 285.376 389.188C283.46 388.192 281.404 387.555 279.215 387.272C276.822 386.964 274.469 387.107 272.148 387.698C269.064 388.483 266.528 389.872 264.536 391.864L265.98 390.42L267.66 389.26C273.14 385.481 279.097 382.332 285.534 379.814C291.419 377.511 297.261 375.709 303.061 374.412C309.358 373.001 315.15 372.299 320.433 372.299C331.025 372.299 339.404 374.384 345.575 378.557C349.193 381.007 352.116 383.898 354.337 387.232C357.439 391.885 358.993 396.965 358.993 402.467C358.993 409.48 356.715 415.587 352.163 420.789C348.602 424.858 344.017 427.809 338.401 429.643C333.633 431.201 327.2 432.495 319.108 433.526C311.507 434.436 304.594 436.048 298.361 438.362C293.729 440.085 290.269 442.159 287.98 444.584C287.669 444.917 287.454 445.229 287.343 445.526C287.16 446.006 287.067 446.679 287.067 447.553C287.067 450.49 287.35 452.751 287.916 454.338C288.027 454.656 288.127 454.878 288.217 455.015C288.181 454.961 288.124 454.9 288.041 454.825C288.5 455.229 289.248 455.591 290.276 455.91C292.218 456.505 294.722 456.806 297.788 456.806ZM323.582 420.946C321.458 420.946 319.731 421.322 318.402 422.078C317.406 422.64 316.69 423.249 316.257 423.901C315.286 425.359 314.799 426.742 314.799 428.049C314.799 429.203 314.999 430.406 315.404 431.656C315.956 433.376 316.812 434.948 317.98 436.37C319.756 438.545 321.931 440.153 324.51 441.202C326.276 441.922 327.991 442.284 329.66 442.284C330.438 442.284 331.204 442.141 331.96 441.854C332.494 441.654 332.899 441.439 333.174 441.21C334.07 440.464 334.819 439.465 335.413 438.211C336.033 436.9 336.344 435.611 336.344 434.343C336.344 433.261 336.112 432.065 335.646 430.757C334.829 428.468 333.497 426.459 331.649 424.732C329.958 423.149 328.084 422.039 326.028 421.397C325.061 421.097 324.248 420.946 323.582 420.946ZM323.582 465.768C314.469 465.768 306.958 463.006 301.04 457.475C297.587 454.244 295.048 450.358 293.429 445.812C292.157 442.252 291.523 438.43 291.523 434.343C291.523 428.877 292.655 423.762 294.922 418.99C297.157 414.276 300.367 410.186 304.551 406.715C311.987 400.547 320.354 397.463 329.66 397.463C333.848 397.463 337.767 398.204 341.42 399.694C345.883 401.514 349.634 404.276 352.668 407.986C357.303 413.653 359.62 420.341 359.62 428.049C359.62 435.79 357.596 442.692 353.552 448.764C350.042 454.029 345.69 458.131 340.5 461.075C334.976 464.202 329.338 465.768 323.582 465.768Z" fill="#003CA7"/>
<path d="M454.838 501.627C442.351 501.627 430.978 499.604 420.716 495.556C408.877 490.885 399.467 483.506 392.482 473.416C385.422 463.218 381.89 450.82 381.89 436.227C381.89 431.589 381.962 426.04 382.105 419.585C382.263 412.489 382.815 405.329 383.757 398.101L383.807 397.707L383.875 397.316C383.312 400.672 383.606 403.986 384.749 407.249C385.906 410.559 387.776 413.36 390.358 415.652C392.59 417.637 395.158 419.045 398.067 419.876C400.939 420.696 403.827 420.864 406.728 420.381L404.898 420.685H398.851C398.131 420.685 397.34 420.724 396.476 420.803L395.463 420.896H394.445C390.408 420.896 386.583 420.065 382.969 418.403C379.448 416.784 376.378 414.495 373.763 411.529C369.479 406.676 367.047 401.045 366.466 394.64L366.409 394.028L366.388 393.412C366.234 389.099 366.194 384.783 366.273 380.47C366.341 376.687 366.373 372.908 366.373 369.126V368.109L366.466 367.098C367.072 360.443 369.654 354.683 374.218 349.815C376.865 346.993 379.935 344.826 383.427 343.314C386.912 341.806 390.588 341.054 394.445 341.054H404.722C402.655 341.054 400.614 341.398 398.593 342.089C395.921 343.002 393.546 344.428 391.465 346.362C388.145 349.443 386.157 353.1 385.508 357.33L407.656 360.74L385.275 359.619C385.419 356.75 385.598 353.53 385.809 349.962C386.042 346.129 386.314 342.719 386.629 339.728C387.507 332.675 390.229 326.865 394.8 322.298C399.367 317.728 405.034 315.023 411.797 314.178C415.189 313.798 418.932 313.569 423.033 313.483C426.196 313.419 428.904 313.325 431.157 313.2L431.78 313.164H432.4C434.41 313.164 436.874 313.204 439.79 313.275L448.165 313.487C451.901 313.576 455.182 313.823 458.008 314.228L454.838 336.415L456.7 314.081C460.479 314.397 464.044 315.41 467.389 317.122C470.577 318.756 473.393 320.941 475.839 323.674C478.64 326.805 480.635 330.333 481.821 334.255C483.057 338.346 483.318 342.53 482.605 346.81L482.562 347.064L482.516 347.319C482 350.023 481.552 352.584 481.169 355.009C480.933 356.506 480.814 357.997 480.814 359.48C480.814 358.459 480.682 357.373 480.413 356.223C479.88 353.938 478.909 351.789 477.498 349.776C475.481 346.896 472.88 344.697 469.689 343.178C467.009 341.903 464.226 341.265 461.339 341.265C465.168 341.265 469.273 341.197 473.661 341.064C478.5 340.918 483.06 340.842 487.341 340.842C491.224 340.842 494.935 341.616 498.474 343.156C501.748 344.586 504.681 346.595 507.278 349.192C509.972 351.886 512.035 354.959 513.468 358.419C514.904 361.883 515.624 365.522 515.624 369.337V392.821C515.624 396.571 514.929 400.16 513.54 403.588C512.189 406.93 510.248 409.939 507.722 412.615C504.918 415.584 501.683 417.819 498.022 419.324C493.96 420.99 489.723 421.624 485.313 421.222C482.57 420.982 479.167 420.8 475.108 420.674C470.867 420.542 467.257 420.477 464.276 420.477C465.326 420.477 466.458 420.298 467.665 419.947C469.775 419.331 471.716 418.292 473.489 416.831C475.459 415.212 476.982 413.267 478.06 411.003C478.805 409.438 479.263 407.876 479.428 406.325L457.145 403.936L479.489 405.655C479.256 408.718 479.138 411.812 479.138 414.943C479.138 418.325 479.199 421.459 479.324 424.349L456.937 425.324L479.296 423.834C479.228 422.795 478.877 421.67 478.243 420.456C477.369 418.783 476.186 417.425 474.686 416.38C474.145 416.003 473.59 415.731 473.027 415.57C472.88 415.531 472.755 415.502 472.658 415.488C472.69 415.495 472.762 415.495 472.873 415.495C473.185 415.495 473.88 415.355 474.954 415.072C476.161 414.757 476.889 414.531 477.136 414.399L487.76 434.132L474.578 416.007C478.551 413.12 482.896 411.411 487.62 410.888C492.649 410.33 497.492 411.164 502.149 413.389C507.389 415.896 511.38 419.729 514.127 424.89C516.108 428.616 517.225 432.749 517.476 437.291C517.648 440.368 517.691 443.972 517.612 448.098C517.544 451.515 517.512 454.864 517.512 458.142C517.512 462.007 517.43 465.345 517.261 468.161L494.892 466.843H517.301C517.301 473.283 515.542 479.075 512.024 484.219C508.722 489.04 504.509 492.594 499.38 494.872L497.729 495.606L495.981 496.065C489.916 497.662 483.569 498.973 476.928 500.001C469.922 501.087 462.557 501.627 454.838 501.627ZM454.838 456.806C460.261 456.806 465.337 456.437 470.076 455.706C475.18 454.915 480.012 453.919 484.572 452.719L490.278 474.394L481.176 453.915C478.561 455.076 476.516 456.738 475.03 458.909C473.328 461.394 472.479 464.038 472.479 466.843V466.187L472.519 465.528C472.633 463.59 472.69 461.129 472.69 458.142C472.69 454.571 472.726 450.928 472.798 447.217C472.855 444.215 472.834 441.733 472.723 439.777C472.837 441.805 473.446 443.857 474.553 445.942C476.426 449.459 479.177 452.088 482.81 453.826C485.858 455.284 489.11 455.821 492.567 455.438C495.719 455.087 498.509 454.026 500.942 452.257L499.717 453.145L498.384 453.865C494.996 455.688 490.973 457.211 486.309 458.432C481.513 459.689 477.032 460.316 472.873 460.316C463.843 460.316 455.898 457.924 449.039 453.142C444.536 450 441.026 446.021 438.511 441.203C436.236 436.843 434.922 432.047 434.574 426.814L434.557 426.556L434.546 426.298C434.392 422.759 434.317 418.973 434.317 414.943C434.317 410.666 434.478 406.425 434.8 402.216L434.825 401.883L434.861 401.55C435.237 398.036 436.147 394.766 437.594 391.732C439.371 387.999 441.839 384.833 444.994 382.232C450.321 377.848 456.747 375.652 464.276 375.652C467.722 375.652 471.802 375.727 476.509 375.874C481.395 376.028 485.682 376.265 489.372 376.584C486.499 376.322 483.712 376.748 481.011 377.855C478.712 378.797 476.756 380.126 475.137 381.838C473.801 383.253 472.751 384.897 471.992 386.774C471.2 388.734 470.803 390.75 470.803 392.821V369.337C470.803 371.472 471.222 373.557 472.064 375.588C472.905 377.615 474.077 379.381 475.585 380.886C476.989 382.29 478.651 383.411 480.56 384.245C482.734 385.191 484.995 385.667 487.341 385.667C483.515 385.667 479.407 385.732 475.019 385.864C470.179 386.011 465.62 386.087 461.339 386.087C457.474 386.087 453.835 385.273 450.421 383.647C446.495 381.777 443.282 379.055 440.778 375.477C437.587 370.92 435.993 365.587 435.993 359.48C435.993 355.654 436.294 351.832 436.896 348.017C437.35 345.126 437.881 342.1 438.486 338.93L460.501 343.124L438.393 339.442C437.959 342.042 438.135 344.636 438.916 347.226C439.65 349.643 440.821 351.757 442.437 353.558C443.694 354.966 445.199 356.116 446.954 357.015C448.867 357.997 450.873 358.573 452.979 358.749L452.32 358.695L451.668 358.602C450.582 358.444 449.042 358.344 447.043 358.294L438.644 358.083C436.108 358.018 434.026 357.986 432.4 357.986V335.577L433.643 357.954C430.867 358.108 427.633 358.222 423.947 358.297C421.196 358.351 419 358.473 417.356 358.652C420.766 358.226 423.811 356.671 426.493 353.992C429.173 351.309 430.745 348.121 431.204 344.421C430.96 346.746 430.742 349.486 430.552 352.645C430.348 356.066 430.176 359.136 430.04 361.858L429.982 363.008L429.807 364.147C428.879 370.193 426.264 375.215 421.962 379.206C419.394 381.595 416.439 383.357 413.104 384.5C410.421 385.417 407.627 385.875 404.722 385.875H394.445C396.77 385.875 399.027 385.402 401.219 384.453C403.418 383.504 405.32 382.175 406.918 380.47C409.382 377.841 410.779 374.735 411.105 371.157L388.786 369.126H411.195C411.195 373.173 411.159 377.221 411.087 381.269C411.026 384.783 411.055 388.297 411.18 391.814L388.786 392.613L411.105 390.582C410.801 387.254 409.558 384.349 407.373 381.874C405.804 380.097 403.905 378.697 401.681 377.672C399.356 376.605 396.946 376.071 394.445 376.071V398.484L392.418 376.164C394.632 375.964 396.774 375.864 398.851 375.864H403.046V398.273L399.36 376.168C403.103 375.545 406.775 375.749 410.382 376.777C414.025 377.819 417.273 379.61 420.135 382.154C423.345 385.008 425.652 388.436 427.056 392.445C428.442 396.406 428.786 400.486 428.087 404.684L405.979 400.998L428.202 403.9C427.468 409.531 427.038 415.094 426.916 420.581C426.78 426.706 426.712 431.922 426.712 436.227C426.712 441.486 427.586 445.379 429.334 447.901C431.157 450.534 433.765 452.518 437.164 453.862C442.143 455.824 448.032 456.806 454.838 456.806Z" fill="#003CA7"/>
<path d="M564.5 501.627C552.013 501.627 540.64 499.604 530.378 495.556C518.539 490.885 509.129 483.506 502.144 473.416C495.084 463.218 491.552 450.82 491.552 436.227C491.552 431.589 491.624 426.04 491.767 419.585C491.925 412.489 492.476 405.329 493.418 398.101L493.469 397.707L493.537 397.316C492.974 400.672 493.268 403.986 494.411 407.249C495.568 410.559 497.437 413.36 500.02 415.652C502.252 417.637 504.82 419.045 507.729 419.876C510.601 420.696 513.488 420.864 516.39 420.381L514.559 420.685H508.513C507.793 420.685 507.001 420.724 506.138 420.803L505.124 420.896H504.107C500.07 420.896 496.245 420.065 492.63 418.403C489.109 416.784 486.04 414.495 483.425 411.529C479.141 406.676 476.708 401.045 476.128 394.64L476.071 394.028L476.049 393.412C475.895 389.099 475.856 384.783 475.935 380.47C476.003 376.687 476.035 372.908 476.035 369.126V368.109L476.128 367.098C476.734 360.443 479.316 354.683 483.88 349.815C486.527 346.993 489.597 344.826 493.089 343.314C496.574 341.806 500.249 341.054 504.107 341.054H514.384C512.317 341.054 510.275 341.398 508.255 342.089C505.583 343.002 503.208 344.428 501.127 346.362C497.806 349.443 495.818 353.1 495.17 357.33L517.318 360.74L494.937 359.619C495.081 356.75 495.26 353.53 495.471 349.962C495.704 346.129 495.976 342.719 496.291 339.728C497.169 332.675 499.891 326.865 504.462 322.298C509.029 317.728 514.696 315.023 521.458 314.178C524.851 313.798 528.594 313.569 532.695 313.483C535.858 313.419 538.566 313.325 540.819 313.2L541.442 313.164H542.062C544.072 313.164 546.536 313.204 549.452 313.275L557.826 313.487C561.562 313.576 564.843 313.823 567.67 314.228L564.5 336.415L566.362 314.081C570.141 314.397 573.705 315.41 577.051 317.122C580.239 318.756 583.054 320.941 585.501 323.674C588.302 326.805 590.297 330.333 591.483 334.255C592.719 338.346 592.98 342.53 592.267 346.81L592.224 347.064L592.178 347.319C591.662 350.023 591.214 352.584 590.831 355.009C590.594 356.506 590.476 357.997 590.476 359.48C590.476 358.459 590.344 357.373 590.075 356.223C589.541 353.938 588.571 351.789 587.159 349.776C585.143 346.896 582.542 344.697 579.351 343.178C576.671 341.903 573.888 341.265 571.001 341.265C574.83 341.265 578.935 341.197 583.323 341.064C588.162 340.918 592.722 340.842 597.003 340.842C600.886 340.842 604.597 341.616 608.136 343.156C611.409 344.586 614.343 346.595 616.94 349.192C619.634 351.886 621.697 354.959 623.13 358.419C624.566 361.883 625.286 365.522 625.286 369.337V392.821C625.286 396.571 624.591 400.16 623.201 403.588C621.851 406.93 619.91 409.939 617.384 412.615C614.58 415.584 611.345 417.819 607.684 419.324C603.622 420.99 599.385 421.624 594.975 421.222C592.231 420.982 588.829 420.8 584.77 420.674C580.529 420.542 576.918 420.477 573.938 420.477C574.988 420.477 576.12 420.298 577.327 419.947C579.437 419.331 581.378 418.292 583.151 416.831C585.121 415.212 586.644 413.267 587.722 411.003C588.467 409.438 588.925 407.876 589.09 406.325L566.806 403.936L589.151 405.655C588.918 408.718 588.8 411.812 588.8 414.943C588.8 418.325 588.861 421.459 588.986 424.349L566.599 425.324L588.957 423.834C588.889 422.795 588.538 421.67 587.904 420.456C587.03 418.783 585.848 417.425 584.347 416.38C583.807 416.003 583.251 415.731 582.689 415.57C582.542 415.531 582.417 415.502 582.32 415.488C582.352 415.495 582.424 415.495 582.535 415.495C582.847 415.495 583.542 415.355 584.616 415.072C585.823 414.757 586.55 414.531 586.798 414.399L597.422 434.132L584.24 416.007C588.212 413.12 592.557 411.411 597.282 410.888C602.311 410.33 607.154 411.164 611.811 413.389C617.051 415.896 621.041 419.729 623.789 424.89C625.77 428.616 626.887 432.749 627.138 437.291C627.31 440.368 627.353 443.972 627.274 448.098C627.206 451.515 627.174 454.864 627.174 458.142C627.174 462.007 627.091 465.345 626.923 468.161L604.554 466.843H626.962C626.962 473.283 625.204 479.075 621.686 484.219C618.384 489.04 614.171 492.594 609.042 494.872L607.39 495.606L605.642 496.065C599.578 497.662 593.231 498.973 586.59 500.001C579.583 501.087 572.219 501.627 564.5 501.627ZM564.5 456.806C569.923 456.806 574.998 456.437 579.737 455.706C584.842 454.915 589.674 453.919 594.234 452.719L599.94 474.394L590.838 453.915C588.223 455.076 586.178 456.738 584.691 458.909C582.99 461.394 582.141 464.038 582.141 466.843V466.187L582.18 465.528C582.295 463.59 582.352 461.129 582.352 458.142C582.352 454.571 582.388 450.928 582.46 447.217C582.517 444.215 582.496 441.733 582.385 439.777C582.499 441.805 583.108 443.857 584.215 445.942C586.088 449.459 588.839 452.088 592.471 453.826C595.52 455.284 598.772 455.821 602.229 455.438C605.381 455.087 608.171 454.026 610.604 452.257L609.378 453.145L608.046 453.865C604.657 455.688 600.635 457.211 595.971 458.432C591.175 459.689 586.694 460.316 582.535 460.316C573.505 460.316 565.56 457.924 558.7 453.142C554.198 450 550.687 446.021 548.173 441.203C545.898 436.843 544.584 432.047 544.236 426.814L544.218 426.556L544.208 426.298C544.054 422.759 543.978 418.973 543.978 414.943C543.978 410.666 544.14 406.425 544.462 402.216L544.487 401.883L544.523 401.55C544.899 398.036 545.809 394.766 547.256 391.732C549.033 387.999 551.501 384.833 554.656 382.232C559.983 377.848 566.409 375.652 573.938 375.652C577.384 375.652 581.464 375.727 586.171 375.874C591.057 376.028 595.344 376.265 599.034 376.584C596.161 376.322 593.374 376.748 590.673 377.855C588.374 378.797 586.418 380.126 584.799 381.838C583.463 383.253 582.413 384.897 581.654 386.774C580.862 388.734 580.465 390.75 580.465 392.821V369.337C580.465 371.472 580.884 373.557 581.725 375.588C582.567 377.615 583.739 379.381 585.247 380.886C586.651 382.29 588.313 383.411 590.222 384.245C592.396 385.191 594.656 385.667 597.003 385.667C593.177 385.667 589.069 385.732 584.681 385.864C579.841 386.011 575.281 386.087 571.001 386.087C567.136 386.087 563.497 385.273 560.083 383.647C556.157 381.777 552.944 379.055 550.44 375.477C547.249 370.92 545.655 365.587 545.655 359.48C545.655 355.654 545.956 351.832 546.557 348.017C547.012 345.126 547.542 342.1 548.148 338.93L570.163 343.124L548.055 339.442C547.621 342.042 547.797 344.636 548.578 347.226C549.312 349.643 550.483 351.757 552.099 353.558C553.356 354.966 554.86 356.116 556.616 357.015C558.528 357.997 560.534 358.573 562.641 358.749L561.981 358.695L561.33 358.602C560.244 358.444 558.704 358.344 556.705 358.294L548.305 358.083C545.769 358.018 543.688 357.986 542.062 357.986V335.577L543.305 357.954C540.529 358.108 537.294 358.222 533.608 358.297C530.858 358.351 528.662 358.473 527.018 358.652C530.428 358.226 533.472 356.671 536.155 353.992C538.835 351.309 540.407 348.121 540.866 344.421C540.622 346.746 540.404 349.486 540.214 352.645C540.01 356.066 539.838 359.136 539.701 361.858L539.644 363.008L539.469 364.147C538.541 370.193 535.926 375.215 531.624 379.206C529.056 381.595 526.101 383.357 522.766 384.5C520.083 385.417 517.289 385.875 514.384 385.875H504.107C506.432 385.875 508.689 385.402 510.881 384.453C513.08 383.504 514.982 382.175 516.58 380.47C519.044 377.841 520.441 374.735 520.767 371.157L498.448 369.126H520.857C520.857 373.173 520.821 377.221 520.749 381.269C520.688 384.783 520.717 388.297 520.842 391.814L498.448 392.613L520.767 390.582C520.463 387.254 519.22 384.349 517.035 381.874C515.466 380.097 513.567 378.697 511.343 377.672C509.018 376.605 506.607 376.071 504.107 376.071V398.484L502.08 376.164C504.293 375.964 506.435 375.864 508.513 375.864H512.708V398.273L509.022 376.168C512.765 375.545 516.436 375.749 520.043 376.777C523.686 377.819 526.935 379.61 529.797 382.154C533.007 385.008 535.314 388.436 536.718 392.445C538.104 396.406 538.448 400.486 537.749 404.684L515.641 400.998L537.864 403.9C537.13 409.531 536.7 415.094 536.578 420.581C536.442 426.706 536.374 431.922 536.374 436.227C536.374 441.486 537.248 445.379 538.996 447.901C540.819 450.534 543.427 452.518 546.826 453.862C551.805 455.824 557.694 456.806 564.5 456.806Z" fill="#003CA7"/>
<path d="M639.561 500.789C636.262 500.789 632.189 500.714 627.35 500.567C622.317 500.416 617.979 500.18 614.344 499.865L613.305 499.775L612.277 499.589C606.148 498.475 600.875 495.706 596.455 491.29C593.729 488.56 591.655 485.422 590.237 481.876C588.886 478.505 588.213 474.963 588.213 471.248C588.213 458.923 588.356 446.25 588.639 433.225C588.922 420.23 589.309 407.482 589.803 394.977C590.298 382.512 590.824 370.881 591.39 360.092C591.956 349.256 592.526 339.854 593.095 331.88L593.142 331.228L593.224 330.58C594.13 323.623 597.05 317.86 601.982 313.282C606.521 309.066 612.076 306.562 618.649 305.774C622.027 305.416 625.856 305.162 630.137 305.001C634.188 304.85 637.677 304.775 640.61 304.775C643.519 304.775 647.37 304.811 652.166 304.882C657.414 304.961 661.859 305.165 665.498 305.499C669.091 305.796 672.526 306.763 675.796 308.4C679.07 310.037 681.939 312.243 684.411 315.023C687.298 318.272 689.304 321.969 690.436 326.113C691.482 329.946 691.693 333.886 691.07 337.934L668.919 334.527L691.206 336.873C689.859 349.675 688.881 363.595 688.272 378.632C687.656 393.813 687.384 409.24 687.452 424.912C687.52 440.669 687.828 455.831 688.38 470.403L665.985 471.248L688.33 469.529C688.623 473.333 688.215 476.976 687.112 480.458C685.783 484.649 683.569 488.291 680.467 491.393C676.033 495.828 670.617 498.579 664.216 499.643L663.549 499.754L662.88 499.825C659.685 500.162 655.691 500.409 650.887 500.567C646.377 500.714 642.602 500.789 639.561 500.789ZM639.561 455.967C642.115 455.967 645.4 455.899 649.419 455.767C653.144 455.645 656.067 455.473 658.187 455.251L660.533 477.538L656.848 455.434C653.803 455.939 651.113 457.361 648.774 459.7C646.721 461.752 645.26 464.156 644.386 466.91C643.734 468.963 643.487 470.98 643.641 472.968L643.605 472.531L643.591 472.094C643.021 457.024 642.702 441.364 642.631 425.109C642.559 408.768 642.846 392.67 643.487 376.816C644.135 360.819 645.185 345.939 646.632 332.181L646.689 331.647L646.768 331.121C646.428 333.349 646.567 335.612 647.194 337.908C647.907 340.516 649.143 342.816 650.912 344.804C652.263 346.323 653.878 347.555 655.751 348.49C657.625 349.428 659.523 349.976 661.44 350.137C658.929 349.908 655.612 349.761 651.496 349.7C646.922 349.632 643.297 349.6 640.61 349.6C638.232 349.6 635.291 349.665 631.795 349.794C628.528 349.915 625.924 350.077 623.99 350.277C627.067 349.908 629.897 348.526 632.479 346.126C634.102 344.618 635.381 342.877 636.316 340.899C637.021 339.406 637.473 337.898 637.67 336.375L615.447 333.478L637.802 335.075C637.254 342.762 636.702 351.882 636.151 362.434C635.596 373.034 635.076 384.471 634.593 396.746C634.105 408.986 633.726 421.469 633.45 434.2C633.174 446.898 633.034 459.249 633.034 471.248C633.034 469.21 632.64 467.204 631.852 465.231C630.993 463.081 629.761 461.204 628.149 459.596C625.967 457.411 623.349 456.043 620.297 455.488L616.285 477.538L618.226 455.212C621.024 455.455 624.516 455.638 628.707 455.767C633.095 455.899 636.713 455.967 639.561 455.967Z" fill="#003CA7"/>
<path d="M699.338 500.789C686.872 500.789 676.291 496.981 667.594 489.373C662.654 485.05 658.961 479.827 656.511 473.698C654.323 468.232 653.23 462.243 653.23 455.731C653.23 449.198 654.305 443.191 656.457 437.71C658.879 431.538 662.543 426.269 667.447 421.903C676.166 414.137 686.797 410.254 699.338 410.254C712.014 410.254 722.714 414.137 731.436 421.903C736.365 426.291 740.036 431.606 742.458 437.85C744.589 443.337 745.653 449.37 745.653 455.939C745.653 462.469 744.553 468.465 742.354 473.928C739.875 480.085 736.135 485.311 731.139 489.606C722.463 497.06 711.864 500.789 699.338 500.789ZM699.338 455.968C700.394 455.968 701.197 455.874 701.752 455.688C701.845 455.656 701.906 455.631 701.924 455.613C701.397 456.064 701.014 456.591 700.774 457.193L700.745 457.221C700.803 456.892 700.831 456.465 700.831 455.939C700.831 454.961 700.778 454.334 700.67 454.058C700.853 454.531 701.172 454.972 701.626 455.377C701.612 455.362 701.576 455.348 701.519 455.326C701.035 455.158 700.308 455.076 699.338 455.076C698.173 455.076 697.482 455.176 697.256 455.377C697.686 454.993 697.994 454.567 698.181 454.091C698.095 454.309 698.052 454.854 698.052 455.731C698.052 456.258 698.08 456.691 698.141 457.028L698.127 457.053C697.912 456.516 697.572 456.046 697.11 455.638C697.357 455.857 698.102 455.968 699.338 455.968Z" fill="#003CA7"/>
<path d="M123.542 478.384C120.608 478.384 116.869 478.312 112.323 478.169C107.785 478.025 103.977 477.814 100.904 477.538C97.4076 477.119 95.3086 475.371 94.6137 472.294C92.092 461.949 89.5022 449.477 86.8479 434.869C84.1901 420.255 81.7794 404.53 79.6123 387.687C77.4416 370.838 75.801 354.027 74.6835 337.253C74.5473 335.44 74.97 333.94 75.9443 332.754C76.9258 331.561 78.2547 330.898 79.9275 330.762C81.8833 330.476 84.3298 330.268 87.2634 330.132C90.2042 329.989 93.1415 329.917 96.0751 329.917C99.0052 329.917 101.384 329.917 103.21 329.917C105.997 329.917 109.701 329.956 114.315 330.032C118.928 330.1 122.772 330.343 125.849 330.762C127.385 330.898 128.714 331.522 129.832 332.639C130.949 333.757 131.44 335.369 131.308 337.468C131.308 341.662 131.308 346.451 131.308 351.839C131.308 357.219 131.412 362.563 131.623 367.872C131.831 373.184 132.074 377.937 132.354 382.128C133.471 399.189 135.85 407.718 139.489 407.718C141.724 407.718 143.433 405.483 144.618 401.012C145.811 396.535 147.104 391.219 148.501 385.065C149.476 380.731 150.486 375.838 151.539 370.394C152.588 364.942 153.602 360.185 154.576 356.123C156.113 348.722 158.137 343.41 160.651 340.19C163.173 336.974 166.601 335.362 170.939 335.362C175.409 335.362 178.898 336.974 181.413 340.19C183.934 343.41 185.962 348.722 187.502 356.123C188.34 360.042 189.282 364.655 190.325 369.964C191.374 375.276 192.391 379.961 193.376 384.019C194.913 390.725 196.307 396.492 197.56 401.313C198.821 406.138 200.569 408.549 202.804 408.549C206.576 408.549 208.955 400.092 209.94 383.174C210.359 378.983 210.635 374.162 210.771 368.717C210.914 363.265 211.018 357.778 211.086 352.254C211.161 346.734 211.129 341.806 210.986 337.468C210.842 335.369 211.329 333.757 212.447 332.639C213.572 331.522 214.904 330.898 216.445 330.762C219.654 330.343 223.63 330.1 228.38 330.032C233.137 329.956 236.84 329.917 239.498 329.917C242.296 329.917 246.068 329.956 250.817 330.032C255.574 330.1 259.489 330.343 262.566 330.762C266.338 331.174 268.086 333.338 267.81 337.253C266.969 349.833 265.812 362.484 264.343 375.208C262.882 387.931 261.241 400.267 259.428 412.217C257.612 424.166 255.725 435.249 253.769 445.458C251.81 455.659 249.85 464.607 247.894 472.294C247.053 475.371 244.957 477.119 241.604 477.538C238.108 477.814 234.226 478.025 229.956 478.169C225.693 478.312 222.097 478.384 219.167 478.384C216.366 478.384 212.798 478.312 208.464 478.169C204.137 478.025 200.644 477.814 197.99 477.538C195.468 477.262 193.405 476.492 191.8 475.231C190.196 473.971 189.042 472.015 188.347 469.357C187.638 465.728 186.657 460.803 185.396 454.585C184.142 448.359 182.82 442.313 181.427 436.446C180.023 430.295 178.479 425.051 176.799 420.713C175.126 416.379 173.238 414.209 171.139 414.209C168.904 414.209 166.913 416.411 165.165 420.814C163.417 425.22 161.773 430.843 160.236 437.692C159.262 443.147 158.144 448.882 156.883 454.9C155.629 460.911 154.652 465.728 153.946 469.357C153.391 472.015 152.273 473.971 150.593 475.231C148.92 476.492 146.825 477.262 144.303 477.538C141.645 477.957 138.221 478.201 134.03 478.269C129.835 478.344 126.339 478.384 123.542 478.384Z" fill="#FFFFF3"/>
<path d="M297.788 479.214C287.163 479.214 278.989 476.7 273.258 471.664C267.527 466.631 264.661 458.593 264.661 447.55C264.661 440.282 267 434.167 271.682 429.21C276.36 424.245 282.65 420.294 290.552 417.36C298.45 414.42 307.079 412.389 316.443 411.271C323.012 410.44 328.009 409.466 331.43 408.348C334.858 407.223 336.573 405.264 336.573 402.474C336.573 400.518 335.384 398.734 333.006 397.129C330.634 395.517 326.447 394.708 320.44 394.708C316.801 394.708 312.635 395.234 307.946 396.284C303.264 397.337 298.511 398.806 293.69 400.697C288.876 402.581 284.437 404.92 280.379 407.718C278.563 409.534 276.783 409.989 275.035 409.079C273.287 408.173 272.413 406.321 272.413 403.52C272.269 399.049 272.334 394.192 272.613 388.948C272.9 383.704 273.179 378.915 273.459 374.577C273.745 371.081 275.071 368.846 277.442 367.872C281.5 366.478 287.547 365.117 295.581 363.788C303.623 362.452 313.513 361.782 325.254 361.782C339.514 361.782 350.837 363.57 359.226 367.141C367.611 370.705 373.762 375.594 377.68 381.813C381.596 388.031 383.97 395.131 384.801 403.104C385.507 408.971 386.17 415.852 386.793 423.751C387.423 431.653 387.982 439.726 388.469 447.979C388.964 456.225 389.279 463.909 389.415 471.033C389.415 474.672 387.599 476.843 383.97 477.538C381.313 477.814 378.028 478.025 374.113 478.168C370.194 478.312 366.77 478.383 363.84 478.383C361.038 478.383 357.714 478.312 353.867 478.168C350.027 478.025 346.639 477.814 343.709 477.538C341.051 477.262 338.988 476.356 337.519 474.816C336.058 473.279 335.535 471.391 335.957 469.156C336.233 467.2 336.581 464.714 337.003 461.706C337.422 458.697 337.698 456.075 337.834 453.84C337.978 451.748 337.49 450.566 336.373 450.286C335.255 450 334.274 450.838 333.436 452.794C329.94 462.164 325.011 468.913 318.649 473.039C312.287 477.158 305.331 479.214 297.788 479.214ZM323.578 443.351C325.39 443.351 327.346 442.76 329.438 441.575C331.537 440.393 333.357 438.648 334.897 436.345C336.434 434.035 337.204 431.269 337.204 428.049C337.204 425.671 336.573 423.715 335.313 422.175C334.059 420.638 332.175 419.868 329.653 419.868C325.745 419.868 322.149 421.236 318.864 423.966C315.576 426.688 313.935 430.148 313.935 434.339C313.935 440.35 317.148 443.351 323.578 443.351Z" fill="#FFFFF3"/>
<path d="M454.831 479.215C445.191 479.215 436.562 477.714 428.94 474.716C421.317 471.707 415.303 467.021 410.901 460.66C406.495 454.298 404.296 446.156 404.296 436.231C404.296 431.76 404.367 426.38 404.511 420.083C404.654 413.789 405.145 407.428 405.987 400.998C406.119 400.16 405.872 399.461 405.241 398.906C404.611 398.344 403.88 398.133 403.049 398.276C401.645 398.276 400.245 398.276 398.851 398.276C397.454 398.276 395.989 398.347 394.453 398.491C392.912 398.491 391.619 397.9 390.57 396.714C389.517 395.521 388.922 394.157 388.779 392.616C388.643 388.701 388.61 384.786 388.678 380.867C388.743 376.952 388.779 373.041 388.779 369.133C388.922 367.596 389.517 366.267 390.57 365.149C391.619 364.032 392.912 363.473 394.453 363.473H404.726C406.395 363.473 407.376 362.563 407.663 360.736C407.795 357.95 407.967 354.805 408.179 351.309C408.386 347.813 408.63 344.739 408.909 342.081C409.329 338.729 411.22 336.845 414.583 336.422C417.094 336.135 420.06 335.96 423.481 335.892C426.909 335.827 429.886 335.72 432.407 335.577C434.22 335.577 436.491 335.616 439.213 335.691C441.943 335.759 444.744 335.827 447.609 335.892C450.475 335.96 452.882 336.135 454.831 336.422C456.511 336.558 457.943 337.289 459.129 338.614C460.322 339.943 460.78 341.447 460.505 343.127C459.939 346.061 459.448 348.855 459.029 351.509C458.606 354.167 458.398 356.821 458.398 359.476C458.398 362.277 459.376 363.674 461.336 363.674C465.394 363.674 469.725 363.609 474.331 363.473C478.945 363.33 483.279 363.258 487.341 363.258C488.877 363.258 490.239 363.856 491.424 365.049C492.617 366.235 493.215 367.664 493.215 369.333V392.817C493.215 394.5 492.617 395.969 491.424 397.23C490.239 398.491 488.877 399.05 487.341 398.906C484.121 398.63 480.277 398.419 475.807 398.276C471.336 398.133 467.489 398.061 464.273 398.061C459.935 398.061 457.557 400.02 457.137 403.935C456.858 407.575 456.722 411.25 456.722 414.954C456.722 418.65 456.794 422.11 456.937 425.327C457.213 429.522 458.85 432.67 461.851 434.769C464.86 436.861 468.532 437.907 472.87 437.907C475.105 437.907 477.687 437.527 480.621 436.761C483.562 435.987 485.94 435.113 487.756 434.139C489.293 433.014 490.865 432.835 492.47 433.609C494.082 434.375 494.956 436.016 495.092 438.537C495.236 441.052 495.268 444.093 495.193 447.664C495.124 451.228 495.092 454.724 495.092 458.152C495.092 461.573 495.024 464.471 494.892 466.85C494.892 468.666 494.433 470.238 493.516 471.563C492.606 472.892 491.528 473.834 490.278 474.386C484.966 475.79 479.374 476.947 473.5 477.853C467.626 478.76 461.4 479.215 454.831 479.215Z" fill="#FFFFF3"/>
<path d="M564.492 479.215C554.853 479.215 546.224 477.714 538.602 474.716C530.979 471.707 524.965 467.021 520.563 460.66C516.157 454.298 513.958 446.156 513.958 436.231C513.958 431.76 514.029 426.38 514.173 420.083C514.316 413.789 514.807 407.428 515.648 400.998C515.781 400.16 515.534 399.461 514.903 398.906C514.273 398.344 513.542 398.133 512.711 398.276C511.307 398.276 509.906 398.276 508.513 398.276C507.116 398.276 505.651 398.347 504.114 398.491C502.574 398.491 501.281 397.9 500.231 396.714C499.178 395.521 498.584 394.157 498.44 392.616C498.304 388.701 498.272 384.786 498.34 380.867C498.405 376.952 498.44 373.041 498.44 369.133C498.584 367.596 499.178 366.267 500.231 365.149C501.281 364.032 502.574 363.473 504.114 363.473H514.388C516.057 363.473 517.038 362.563 517.325 360.736C517.457 357.95 517.629 354.805 517.841 351.309C518.048 347.813 518.292 344.739 518.571 342.081C518.99 338.729 520.882 336.845 524.245 336.422C526.756 336.135 529.722 335.96 533.143 335.892C536.571 335.827 539.547 335.72 542.069 335.577C543.882 335.577 546.153 335.616 548.875 335.691C551.604 335.759 554.406 335.827 557.271 335.892C560.137 335.96 562.544 336.135 564.492 336.422C566.172 336.558 567.605 337.289 568.791 338.614C569.984 339.943 570.442 341.447 570.166 343.127C569.6 346.061 569.11 348.855 568.691 351.509C568.268 354.167 568.06 356.821 568.06 359.476C568.06 362.277 569.038 363.674 570.997 363.674C575.056 363.674 579.386 363.609 583.993 363.473C588.606 363.33 592.941 363.258 597.003 363.258C598.539 363.258 599.9 363.856 601.086 365.049C602.279 366.235 602.877 367.664 602.877 369.333V392.817C602.877 394.5 602.279 395.969 601.086 397.23C599.9 398.491 598.539 399.05 597.003 398.906C593.782 398.63 589.939 398.419 585.469 398.276C580.998 398.133 577.151 398.061 573.935 398.061C569.597 398.061 567.218 400.02 566.799 403.935C566.52 407.575 566.384 411.25 566.384 414.954C566.384 418.65 566.455 422.11 566.599 425.327C566.874 429.522 568.511 432.67 571.513 434.769C574.522 436.861 578.194 437.907 582.531 437.907C584.767 437.907 587.349 437.527 590.283 436.761C593.224 435.987 595.602 435.113 597.418 434.139C598.955 433.014 600.527 432.835 602.132 433.609C603.744 434.375 604.618 436.016 604.754 438.537C604.897 441.052 604.93 444.093 604.854 447.664C604.786 451.228 604.754 454.724 604.754 458.152C604.754 461.573 604.686 464.471 604.553 466.85C604.553 468.666 604.095 470.238 603.178 471.563C602.268 472.892 601.19 473.834 599.94 474.386C594.628 475.79 589.036 476.947 583.162 477.853C577.287 478.76 571.062 479.215 564.492 479.215Z" fill="#FFFFF3"/>
<path d="M639.557 478.384C636.48 478.384 632.637 478.312 628.023 478.169C623.409 478.026 619.498 477.814 616.288 477.538C614.748 477.263 613.423 476.564 612.305 475.446C611.188 474.329 610.629 472.932 610.629 471.248C610.629 459.091 610.765 446.583 611.044 433.723C611.32 420.857 611.703 408.241 612.191 395.869C612.685 383.489 613.211 371.955 613.767 361.267C614.329 350.571 614.888 341.308 615.443 333.485C615.862 330.268 617.821 328.449 621.317 328.026C623.972 327.75 627.185 327.546 630.96 327.41C634.732 327.266 637.952 327.195 640.617 327.195C643.404 327.195 647.14 327.231 651.822 327.295C656.511 327.363 660.393 327.539 663.47 327.825C665.14 327.961 666.537 328.656 667.654 329.917C668.772 331.178 669.191 332.718 668.915 334.531C667.518 347.809 666.508 362.209 665.877 377.73C665.247 393.243 664.964 409.004 665.032 425.012C665.107 441.023 665.423 456.433 665.978 471.248C666.121 473.064 665.666 474.497 664.617 475.547C663.564 476.6 662.202 477.263 660.533 477.538C657.875 477.814 654.415 478.026 650.145 478.169C645.883 478.312 642.355 478.384 639.557 478.384Z" fill="#FFFFF3"/>
<path d="M699.33 478.384C692.482 478.384 686.822 476.428 682.352 472.51C677.881 468.595 675.646 463.003 675.646 455.732C675.646 448.32 677.881 442.622 682.352 438.638C686.822 434.655 692.482 432.664 699.33 432.664C706.322 432.664 712.054 434.655 716.524 438.638C721.001 442.622 723.244 448.392 723.244 455.947C723.244 463.218 721.001 468.777 716.524 472.624C712.054 476.464 706.322 478.384 699.33 478.384Z" fill="#FFC600"/>
</g>
<path d="M549.96 541.4C547.213 541.4 544.8 540.8 542.72 539.6C540.667 538.373 539.067 536.707 537.92 534.6C536.773 532.467 536.2 530.067 536.2 527.4C536.2 525.373 536.547 523.507 537.24 521.8C537.933 520.093 538.893 518.613 540.12 517.36C541.373 516.107 542.827 515.133 544.48 514.44C546.16 513.747 547.987 513.4 549.96 513.4C553.053 513.4 555.587 514.04 557.56 515.32C559.533 516.573 561.147 518.267 562.4 520.4L558.48 521.56C557.253 519.88 555.933 518.747 554.52 518.16C553.133 517.547 551.613 517.24 549.96 517.24C548.12 517.24 546.467 517.68 545 518.56C543.56 519.44 542.413 520.64 541.56 522.16C540.707 523.68 540.28 525.427 540.28 527.4C540.28 529.347 540.707 531.093 541.56 532.64C542.413 534.16 543.56 535.36 545 536.24C546.467 537.12 548.12 537.56 549.96 537.56C551.613 537.56 553.133 537.267 554.52 536.68C555.933 536.067 557.253 534.92 558.48 533.24L562.4 534.4C561.147 536.533 559.533 538.24 557.56 539.52C555.587 540.773 553.053 541.4 549.96 541.4ZM583.918 541V513.76H587.918V541H583.918ZM566.798 541V513.76H570.798V541H566.798ZM569.438 529.56V525.8H585.118V529.56H569.438ZM596.467 530.88H611.147V534.64H596.467V530.88ZM591.347 541L601.067 513.76H606.507L616.227 541H612.147L603.427 516.56H604.147L595.427 541H591.347ZM619.65 541V513.76H629.65C631.517 513.76 633.143 514.16 634.53 514.96C635.943 515.733 637.037 516.787 637.81 518.12C638.583 519.453 638.97 520.947 638.97 522.6C638.97 524.253 638.583 525.747 637.81 527.08C637.037 528.413 635.943 529.467 634.53 530.24C633.143 531.013 631.517 531.4 629.65 531.4H622.93V527.64H628.97C630.73 527.64 632.143 527.2 633.21 526.32C634.277 525.413 634.81 524.173 634.81 522.6C634.81 520.92 634.277 519.653 633.21 518.8C632.143 517.947 630.73 517.52 628.97 517.52H622.89L623.65 516.6V541H619.65ZM634.85 541L628.49 529.68H632.89L639.25 541H634.85ZM656.405 541.4C653.659 541.4 651.245 540.8 649.165 539.6C647.112 538.373 645.512 536.707 644.365 534.6C643.219 532.467 642.645 530.067 642.645 527.4C642.645 525.373 642.992 523.507 643.685 521.8C644.379 520.093 645.339 518.613 646.565 517.36C647.819 516.107 649.272 515.133 650.925 514.44C652.605 513.747 654.432 513.4 656.405 513.4C659.499 513.4 662.032 514.04 664.005 515.32C665.979 516.573 667.592 518.267 668.845 520.4L664.925 521.56C663.699 519.88 662.379 518.747 660.965 518.16C659.579 517.547 658.059 517.24 656.405 517.24C654.565 517.24 652.912 517.68 651.445 518.56C650.005 519.44 648.859 520.64 648.005 522.16C647.152 523.68 646.725 525.427 646.725 527.4C646.725 529.347 647.152 531.093 648.005 532.64C648.859 534.16 650.005 535.36 651.445 536.24C652.912 537.12 654.565 537.56 656.405 537.56C658.165 537.56 659.765 537.173 661.205 536.4C662.672 535.6 663.832 534.52 664.685 533.16C665.539 531.8 665.965 530.253 665.965 528.52L666.565 530.84H656.165V527.08H669.525C669.605 527.347 669.659 527.653 669.685 528C669.739 528.347 669.765 528.68 669.765 529C669.765 530.707 669.432 532.307 668.765 533.8C668.099 535.293 667.152 536.613 665.925 537.76C664.725 538.907 663.312 539.8 661.685 540.44C660.085 541.08 658.325 541.4 656.405 541.4ZM677.947 541H673.947V513.76H677.947V541ZM704.088 541L686.488 518.16L688.728 517.52V541H684.728V513.76H688.128L705.128 535.8H703.488V513.76H707.488V541H704.088ZM725.858 541.4C723.112 541.4 720.698 540.8 718.618 539.6C716.565 538.373 714.965 536.707 713.818 534.6C712.672 532.467 712.098 530.067 712.098 527.4C712.098 525.373 712.445 523.507 713.138 521.8C713.832 520.093 714.792 518.613 716.018 517.36C717.272 516.107 718.725 515.133 720.378 514.44C722.058 513.747 723.885 513.4 725.858 513.4C728.952 513.4 731.485 514.04 733.458 515.32C735.432 516.573 737.045 518.267 738.298 520.4L734.378 521.56C733.152 519.88 731.832 518.747 730.418 518.16C729.032 517.547 727.512 517.24 725.858 517.24C724.018 517.24 722.365 517.68 720.898 518.56C719.458 519.44 718.312 520.64 717.458 522.16C716.605 523.68 716.178 525.427 716.178 527.4C716.178 529.347 716.605 531.093 717.458 532.64C718.312 534.16 719.458 535.36 720.898 536.24C722.365 537.12 724.018 537.56 725.858 537.56C727.618 537.56 729.218 537.173 730.658 536.4C732.125 535.6 733.285 534.52 734.138 533.16C734.992 531.8 735.418 530.253 735.418 528.52L736.018 530.84H725.618V527.08H738.978C739.058 527.347 739.112 527.653 739.138 528C739.192 528.347 739.218 528.68 739.218 529C739.218 530.707 738.885 532.307 738.218 533.8C737.552 535.293 736.605 536.613 735.378 537.76C734.178 538.907 732.765 539.8 731.138 540.44C729.538 541.08 727.778 541.4 725.858 541.4Z" fill="#208334"/>
</svg>
